<svg xmlns="http://www.w3.org/2000/svg" width="1200" height="630" viewBox="0 0 1200 630">
  <defs>
    <linearGradient id="bg" x1="0" y1="0" x2="1" y2="1">
      <stop offset="0%" stop-color="#061827"/>
      <stop offset="56%" stop-color="#08233A"/>
      <stop offset="100%" stop-color="#0B2D4A"/>
    </linearGradient>
    <linearGradient id="gold" x1="0" y1="0" x2="1" y2="1">
      <stop offset="0%" stop-color="#FFE28A"/>
      <stop offset="68%" stop-color="#D6AA45"/>
      <stop offset="100%" stop-color="#B78321"/>
    </linearGradient>
    <filter id="shadow" x="-20%" y="-20%" width="140%" height="140%">
      <feDropShadow dx="0" dy="18" stdDeviation="18" flood-color="#000000" flood-opacity="0.26"/>
    </filter>
  </defs>
  <rect width="1200" height="630" fill="#F7FAFF"/>
  <rect x="54" y="44" width="1092" height="542" rx="44" fill="url(#bg)" filter="url(#shadow)"/>
  <circle cx="978" cy="136" r="108" fill="#FFFFFF" opacity="0.045"/>
  <circle cx="1012" cy="500" r="140" fill="#D6AA45" opacity="0.075"/>
  <circle cx="188" cy="492" r="128" fill="#FFFFFF" opacity="0.035"/>

  <rect x="420" y="84" width="360" height="52" rx="26" fill="#FFFFFF" opacity="0.1"/>
  <text x="600" y="118" text-anchor="middle" fill="#F2CF77" font-size="22" font-weight="950" letter-spacing="2" font-family="Arial, sans-serif">GLOBAL SUPPORT NETWORK</text>

  <rect x="530" y="166" width="140" height="140" rx="40" fill="#FFFFFF" opacity="0.12" stroke="#D6AA45" stroke-opacity="0.58" stroke-width="4"/>
  <path d="M600 198 L640 216 V246 C640 276 622 296 600 304 C578 296 560 276 560 246 V216 Z" fill="none" stroke="#F2CF77" stroke-width="9" stroke-linejoin="round"/>
  <path d="M581 247 L596 262 L622 228" fill="none" stroke="#F2CF77" stroke-width="9" stroke-linecap="round" stroke-linejoin="round"/>

  <text x="600" y="382" text-anchor="middle" fill="#FFFFFF" font-size="76" font-weight="950" font-family="Arial, sans-serif">GSN</text>
  <text x="600" y="430" text-anchor="middle" fill="#F2CF77" font-size="34" font-weight="950" font-family="Arial, sans-serif">Trusted public link</text>
  <text x="600" y="472" text-anchor="middle" fill="#D8E7F5" font-size="25" font-weight="850" font-family="Arial, sans-serif">Open the verified shop, community route, or trust check.</text>

  <rect x="376" y="504" width="448" height="54" rx="27" fill="#FFFFFF" opacity="0.13"/>
  <text x="600" y="540" text-anchor="middle" fill="#F8FBFF" font-size="22" font-weight="900" font-family="Arial, sans-serif">gmfn-frontend.onrender.com</text>
</svg>
