<svg width="512" height="512" viewBox="0 0 512 512" fill="none" xmlns="http://www.w3.org/2000/svg">
  <rect width="512" height="512" rx="112" fill="#061827"/>
  <rect x="28" y="28" width="456" height="456" rx="92" fill="url(#bg)" stroke="#D6AA45" stroke-width="10"/>
  <path d="M256 92L364 145V257C364 330 324 389 256 426C188 389 148 330 148 257V145L256 92Z" fill="url(#shield)" stroke="#F2C766" stroke-width="10"/>
  <path d="M256 128L332 166V253C332 306 304 348 256 379C208 348 180 306 180 253V166L256 128Z" fill="none" stroke="rgba(255,255,255,0.28)" stroke-width="5"/>
  <path d="M256 168L276 224H336L287 258L306 315L256 280L206 315L225 258L176 224H236L256 168Z" fill="url(#star)" stroke="#FFF6CE" stroke-width="4"/>
  <text x="256" y="101" text-anchor="middle" fill="#F8FBFF" font-family="Arial, Helvetica, sans-serif" font-size="39" font-weight="900" letter-spacing="5">GSN</text>
  <defs>
    <linearGradient id="bg" x1="256" y1="0" x2="256" y2="512">
      <stop stop-color="#0B2D4A"/>
      <stop offset="1" stop-color="#061827"/>
    </linearGradient>
    <linearGradient id="shield" x1="256" y1="92" x2="256" y2="426">
      <stop stop-color="#1E68B0"/>
      <stop offset="1" stop-color="#08233A"/>
    </linearGradient>
    <linearGradient id="star" x1="256" y1="168" x2="256" y2="315">
      <stop stop-color="#FFF3B8"/>
      <stop offset="0.52" stop-color="#F2C766"/>
      <stop offset="1" stop-color="#B78525"/>
    </linearGradient>
  </defs>
</svg>
