<svg width="512" height="512" viewBox="0 0 512 512" fill="none" xmlns="http://www.w3.org/2000/svg">
  <defs>
    <linearGradient id="appBg" x1="256" y1="18" x2="256" y2="494" gradientUnits="userSpaceOnUse">
      <stop stop-color="#113D62"/>
      <stop offset="0.46" stop-color="#08233A"/>
      <stop offset="1" stop-color="#061827"/>
    </linearGradient>
    <radialGradient id="topGlow" cx="0" cy="0" r="1" gradientUnits="userSpaceOnUse" gradientTransform="translate(256 104) rotate(90) scale(176)">
      <stop stop-color="#5EA8FF" stop-opacity="0.36"/>
      <stop offset="0.52" stop-color="#5EA8FF" stop-opacity="0.12"/>
      <stop offset="1" stop-color="#5EA8FF" stop-opacity="0"/>
    </radialGradient>
    <linearGradient id="gold" x1="256" y1="32" x2="256" y2="480" gradientUnits="userSpaceOnUse">
      <stop stop-color="#FFF2B6"/>
      <stop offset="0.43" stop-color="#F2C766"/>
      <stop offset="1" stop-color="#B98426"/>
    </linearGradient>
    <linearGradient id="shieldFill" x1="256" y1="84" x2="256" y2="346" gradientUnits="userSpaceOnUse">
      <stop stop-color="#2475BF"/>
      <stop offset="0.52" stop-color="#145080"/>
      <stop offset="1" stop-color="#08233A"/>
    </linearGradient>
    <linearGradient id="starFill" x1="256" y1="142" x2="256" y2="258" gradientUnits="userSpaceOnUse">
      <stop stop-color="#FFF7CF"/>
      <stop offset="0.52" stop-color="#F2C766"/>
      <stop offset="1" stop-color="#B98426"/>
    </linearGradient>
    <filter id="softShadow" x="-30%" y="-30%" width="160%" height="170%" color-interpolation-filters="sRGB">
      <feDropShadow dx="0" dy="18" stdDeviation="18" flood-color="#000817" flood-opacity="0.46"/>
    </filter>
    <filter id="textShadow" x="-30%" y="-60%" width="160%" height="220%" color-interpolation-filters="sRGB">
      <feDropShadow dx="0" dy="8" stdDeviation="8" flood-color="#000817" flood-opacity="0.48"/>
    </filter>
  </defs>

  <rect width="512" height="512" rx="116" fill="#061827"/>
  <rect x="24" y="24" width="464" height="464" rx="100" fill="url(#appBg)" stroke="url(#gold)" stroke-width="8"/>
  <rect x="44" y="44" width="424" height="424" rx="82" fill="url(#topGlow)" stroke="rgba(255,255,255,0.10)" stroke-width="2"/>

  <g filter="url(#softShadow)">
    <path
      d="M256 82L356 132V242C356 310 319 360 256 393C193 360 156 310 156 242V132L256 82Z"
      fill="url(#shieldFill)"
      stroke="url(#gold)"
      stroke-width="9"
      stroke-linejoin="round"
    />
    <path
      d="M256 112L327 148V238C327 287 303 326 256 353C209 326 185 287 185 238V148L256 112Z"
      fill="none"
      stroke="rgba(255,255,255,0.24)"
      stroke-width="4"
      stroke-linejoin="round"
    />
    <path
      d="M256 149L273 199H326L283 229L299 280L256 249L213 280L229 229L186 199H239L256 149Z"
      fill="url(#starFill)"
      stroke="#FFF7CF"
      stroke-width="3"
      stroke-linejoin="round"
    />
    <path
      d="M199 152C225 132 285 121 327 156"
      stroke="rgba(255,255,255,0.16)"
      stroke-width="8"
      stroke-linecap="round"
    />
  </g>

  <g filter="url(#textShadow)">
    <text
      x="256"
      y="438"
      text-anchor="middle"
      fill="#F8FBFF"
      stroke="rgba(6,24,39,0.34)"
      stroke-width="1"
      font-family="Arial, Helvetica, sans-serif"
      font-size="78"
      font-weight="900"
      letter-spacing="12"
    >GSN</text>
    <text
      x="256"
      y="438"
      text-anchor="middle"
      fill="url(#gold)"
      font-family="Arial, Helvetica, sans-serif"
      font-size="78"
      font-weight="900"
      letter-spacing="12"
      opacity="0.94"
    >GSN</text>
  </g>
</svg>
