<svg xmlns="http://www.w3.org/2000/svg" width="1200" height="630" viewBox="0 0 1200 630">
  <defs>
    <linearGradient id="bg" x1="0" y1="0" x2="1" y2="1">
      <stop offset="0%" stop-color="#061827"/>
      <stop offset="58%" stop-color="#08233A"/>
      <stop offset="100%" stop-color="#0B2D4A"/>
    </linearGradient>
    <linearGradient id="gold" x1="0" y1="0" x2="1" y2="1">
      <stop offset="0%" stop-color="#FFE28A"/>
      <stop offset="65%" stop-color="#D6AA45"/>
      <stop offset="100%" stop-color="#B78321"/>
    </linearGradient>
    <filter id="shadow" x="-20%" y="-20%" width="140%" height="140%">
      <feDropShadow dx="0" dy="18" stdDeviation="18" flood-color="#000000" flood-opacity="0.28"/>
    </filter>
  </defs>
  <rect width="1200" height="630" fill="#F7FAFF"/>
  <rect x="42" y="42" width="1116" height="546" rx="42" fill="url(#bg)" filter="url(#shadow)"/>
  <circle cx="996" cy="126" r="128" fill="#FFFFFF" opacity="0.05"/>
  <circle cx="1044" cy="500" r="156" fill="#D6AA45" opacity="0.08"/>
  <rect x="94" y="88" width="168" height="62" rx="31" fill="#FFFFFF" opacity="0.10"/>
  <text x="130" y="129" fill="#F2CF77" font-size="26" font-weight="950" font-family="Arial, sans-serif">GSN</text>
  <text x="284" y="127" fill="#D8E7F5" font-size="20" font-weight="900" letter-spacing="4" font-family="Arial, sans-serif">GLOBAL SUPPORT NETWORK</text>
  <rect x="94" y="178" width="90" height="90" rx="26" fill="#FFFFFF" opacity="0.10" stroke="#D6AA45" stroke-opacity="0.55" stroke-width="3"/>
  <path d="M116 236 C116 218 127 206 142 206 C157 206 168 218 168 236 C168 254 156 266 142 270 C128 266 116 254 116 236 Z" fill="none" stroke="#F2CF77" stroke-width="7"/>
  <path d="M126 238 L137 249 L158 225" fill="none" stroke="#F2CF77" stroke-width="7" stroke-linecap="round" stroke-linejoin="round"/>
  <text x="214" y="224" fill="#FFFFFF" font-size="52" font-weight="950" font-family="Arial, sans-serif">GSN Community Access</text>
  <text x="94" y="336" fill="#F2CF77" font-size="22" font-weight="950" letter-spacing="3" font-family="Arial, sans-serif">PUBLIC COMMUNITY DESK</text>
  <text x="94" y="398" fill="#FFFFFF" font-size="36" font-weight="950" font-family="Arial, sans-serif">Join, marketplace, and member routes</text>
  <text x="94" y="452" fill="#D8E7F5" font-size="25" font-weight="750" font-family="Arial, sans-serif">Open the community face before private blocks require sign-in.</text>
  <rect x="94" y="520" width="1012" height="44" rx="22" fill="#FFFFFF" opacity="0.12"/>
  <text x="124" y="549" fill="#F8FBFF" font-size="20" font-weight="850" font-family="Arial, sans-serif">gmfn-frontend.onrender.com/community</text>
  <rect x="874" y="305" width="232" height="76" rx="38" fill="url(#gold)"/>
  <text x="920" y="354" fill="#07172C" font-size="24" font-weight="950" font-family="Arial, sans-serif">OPEN DESK</text>
</svg>
